HIERARCHY
ROOT Hips
{
  OFFSET 5.80788e-005 67.184 3.4734
  CHANNELS 6 Xposition Yposition Zposition Zrotation Xrotation Yrotation
  JOINT Chest
  {
    OFFSET 0 8.7983 -4.7612
    CHANNELS 6 Xposition Yposition Zposition Zrotation Xrotation Yrotation
    JOINT Chest2
    {
      OFFSET 0 8.0291 0.4195
      CHANNELS 6 Xposition Yposition Zposition Zrotation Xrotation Yrotation
      JOINT Chest3
      {
        OFFSET 0 9.9351 -2.2114
        CHANNELS 6 Xposition Yposition Zposition Zrotation Xrotation Yrotation
        JOINT Neck
        {
          OFFSET 0 22.3885 -0.4656
          CHANNELS 6 Xposition Yposition Zposition Zrotation Xrotation Yrotation
          JOINT Head
          {
            OFFSET -0.0001 12.643 3.4389
            CHANNELS 6 Xposition Yposition Zposition Zrotation Xrotation Yrotation
            End Site
            {
              OFFSET 0.0001 17.6655 0.5274
            }
          }
        }
        JOINT LeftCollar
        {
          OFFSET 2.2603 21.606 7.4023
          CHANNELS 6 Xposition Yposition Zposition Zrotation Xrotation Yrotation
          JOINT LeftShoulder
          {
            OFFSET 13.5163 -1.1332 -5.0146
            CHANNELS 6 Xposition Yposition Zposition Zrotation Xrotation Yrotation
            JOINT LeftElbow
            {
              OFFSET -0.0995 -28.05 -0.2431
              CHANNELS 6 Xposition Yposition Zposition Zrotation Xrotation Yrotation
              JOINT LeftWrist
              {
                OFFSET 0.0679 -23.3996 -0.1402
                CHANNELS 6 Xposition Yposition Zposition Zrotation Xrotation Yrotation
                JOINT LeftFinger1
                {
                  OFFSET 0.7932 -9.069 2.5189
                  CHANNELS 6 Xposition Yposition Zposition Zrotation Xrotation Yrotation
                  JOINT LeftFinger11
                  {
                    OFFSET -0.8272 -3.3923 0.5977
                    CHANNELS 6 Xposition Yposition Zposition Zrotation Xrotation Yrotation
                    JOINT LeftFinger12
                    {
                      OFFSET -0.5649 -2.3158 0.4082
                      CHANNELS 6 Xposition Yposition Zposition Zrotation Xrotation Yrotation
                      End Site
                      {
                        OFFSET -0.4919 -1.6479 0.2673
                      }
                    }
                  }
                }
                JOINT LeftFinger2
                {
                  OFFSET 0.9159 -9.2044 0.2193
                  CHANNELS 6 Xposition Yposition Zposition Zrotation Xrotation Yrotation
                  JOINT LeftFinger21
                  {
                    OFFSET 0.0117 -4.1944 -0.0248
                    CHANNELS 6 Xposition Yposition Zposition Zrotation Xrotation Yrotation
                    JOINT LeftFinger22
                    {
                      OFFSET 0.0071 -2.3249 -0.0142
                      CHANNELS 6 Xposition Yposition Zposition Zrotation Xrotation Yrotation
                      End Site
                      {
                        OFFSET -0.1475 -2.0882 0.0028
                      }
                    }
                  }
                }
                JOINT LeftFinger3
                {
                  OFFSET 0.6113 -8.7231 -2.0637
                  CHANNELS 6 Xposition Yposition Zposition Zrotation Xrotation Yrotation
                  JOINT LeftFinger31
                  {
                    OFFSET -0.1927 -3.8059 -0.2383
                    CHANNELS 6 Xposition Yposition Zposition Zrotation Xrotation Yrotation
                    JOINT LeftFinger32
                    {
                      OFFSET -0.1091 -2.1688 -0.1362
                      CHANNELS 6 Xposition Yposition Zposition Zrotation Xrotation Yrotation
                      End Site
                      {
                        OFFSET -0.2358 -1.9176 -0.0906
                      }
                    }
                  }
                }
                JOINT LeftFinger4
                {
                  OFFSET -0.6151 -8.0947 -3.5641
                  CHANNELS 6 Xposition Yposition Zposition Zrotation Xrotation Yrotation
                  JOINT LeftFinger41
                  {
                    OFFSET -0.4882 -2.341 -0.6462
                    CHANNELS 6 Xposition Yposition Zposition Zrotation Xrotation Yrotation
                    JOINT LeftFinger42
                    {
                      OFFSET -0.3575 -1.7167 -0.4742
                      CHANNELS 6 Xposition Yposition Zposition Zrotation Xrotation Yrotation
                      End Site
                      {
                        OFFSET -0.4187 -1.5237 -0.3496
                      }
                    }
                  }
                }
                JOINT LeftFinger0
                {
                  OFFSET -1.42 -1.8761 1.4223
                  CHANNELS 6 Xposition Yposition Zposition Zrotation Xrotation Yrotation
                  JOINT LeftFinger01
                  {
                    OFFSET -1.1471 -3.4929 2.6334
                    CHANNELS 6 Xposition Yposition Zposition Zrotation Xrotation Yrotation
                    JOINT LeftFinger02
                    {
                      OFFSET -0.823 -2.3 1.6571
                      CHANNELS 6 Xposition Yposition Zposition Zrotation Xrotation Yrotation
                      End Site
                      {
                        OFFSET -0.5822 -1.6914 1.1582
                      }
                    }
                  }
                }
              }
            }
          }
        }
        JOINT RightCollar
        {
          OFFSET -2.2603 21.606 7.4023
          CHANNELS 6 Xposition Yposition Zposition Zrotation Xrotation Yrotation
          JOINT RightShoulder
          {
            OFFSET -13.5187 -1.1334 -5.0155
            CHANNELS 6 Xposition Yposition Zposition Zrotation Xrotation Yrotation
            JOINT RightElbow
            {
              OFFSET 0.0994 -28.0499 -0.2431
              CHANNELS 6 Xposition Yposition Zposition Zrotation Xrotation Yrotation
              JOINT RightWrist
              {
                OFFSET -0.0679 -23.3996 -0.1402
                CHANNELS 6 Xposition Yposition Zposition Zrotation Xrotation Yrotation
                JOINT RightFinger1
                {
                  OFFSET -0.7932 -9.0691 2.5189
                  CHANNELS 6 Xposition Yposition Zposition Zrotation Xrotation Yrotation
                  JOINT RightFinger11
                  {
                    OFFSET 0.8272 -3.3923 0.5977
                    CHANNELS 6 Xposition Yposition Zposition Zrotation Xrotation Yrotation
                    JOINT RightFinger12
                    {
                      OFFSET 0.565 -2.3158 0.4082
                      CHANNELS 6 Xposition Yposition Zposition Zrotation Xrotation Yrotation
                      End Site
                      {
                        OFFSET 0.4919 -1.6479 0.2673
                      }
                    }
                  }
                }
                JOINT RightFinger2
                {
                  OFFSET -0.916 -9.2044 0.2193
                  CHANNELS 6 Xposition Yposition Zposition Zrotation Xrotation Yrotation
                  JOINT RightFinger21
                  {
                    OFFSET -0.0117 -4.1944 -0.0248
                    CHANNELS 6 Xposition Yposition Zposition Zrotation Xrotation Yrotation
                    JOINT RightFinger22
                    {
                      OFFSET -0.0071 -2.3249 -0.0142
                      CHANNELS 6 Xposition Yposition Zposition Zrotation Xrotation Yrotation
                      End Site
                      {
                        OFFSET 0.1475 -2.0882 0.0028
                      }
                    }
                  }
                }
                JOINT RightFinger3
                {
                  OFFSET -0.6113 -8.7231 -2.0637
                  CHANNELS 6 Xposition Yposition Zposition Zrotation Xrotation Yrotation
                  JOINT RightFinger31
                  {
                    OFFSET 0.1927 -3.8059 -0.2383
                    CHANNELS 6 Xposition Yposition Zposition Zrotation Xrotation Yrotation
                    JOINT RightFinger32
                    {
                      OFFSET 0.1091 -2.1688 -0.1362
                      CHANNELS 6 Xposition Yposition Zposition Zrotation Xrotation Yrotation
                      End Site
                      {
                        OFFSET 0.2358 -1.9176 -0.0906
                      }
                    }
                  }
                }
                JOINT RightFinger4
                {
                  OFFSET 0.6151 -8.0947 -3.564
                  CHANNELS 6 Xposition Yposition Zposition Zrotation Xrotation Yrotation
                  JOINT RightFinger41
                  {
                    OFFSET 0.4882 -2.341 -0.6462
                    CHANNELS 6 Xposition Yposition Zposition Zrotation Xrotation Yrotation
                    JOINT RightFinger42
                    {
                      OFFSET 0.3574 -1.7166 -0.4742
                      CHANNELS 6 Xposition Yposition Zposition Zrotation Xrotation Yrotation
                      End Site
                      {
                        OFFSET 0.4187 -1.5237 -0.3496
                      }
                    }
                  }
                }
                JOINT RightFinger0
                {
                  OFFSET 1.4199 -1.8761 1.4221
                  CHANNELS 6 Xposition Yposition Zposition Zrotation Xrotation Yrotation
                  JOINT RightFinger01
                  {
                    OFFSET 1.1472 -3.4929 2.6336
                    CHANNELS 6 Xposition Yposition Zposition Zrotation Xrotation Yrotation
                    JOINT RightFinger02
                    {
                      OFFSET 0.8229 -2.3 1.6571
                      CHANNELS 6 Xposition Yposition Zposition Zrotation Xrotation Yrotation
                      End Site
                      {
                        OFFSET 0.5822 -1.6914 1.1582
                      }
                    }
                  }
                }
              }
            }
          }
        }
      }
    }
  }
  JOINT RightHip
  {
    OFFSET -9.412 3.9771 -0.7758
    CHANNELS 6 Xposition Yposition Zposition Zrotation Xrotation Yrotation
    JOINT RightKnee
    {
      OFFSET -0.7531 -40.938 0
      CHANNELS 6 Xposition Yposition Zposition Zrotation Xrotation Yrotation
      JOINT RightAnkle
      {
        OFFSET 0 -40.1986 0
        CHANNELS 6 Xposition Yposition Zposition Zrotation Xrotation Yrotation
        JOINT RightToe
        {
          OFFSET 0 -4.4182 9.239
          CHANNELS 6 Xposition Yposition Zposition Zrotation Xrotation Yrotation
          End Site
          {
            OFFSET 0 0 6.1981
          }
        }
      }
    }
  }
  JOINT LeftHip
  {
    OFFSET 9.4119 3.9773 -0.7758
    CHANNELS 6 Xposition Yposition Zposition Zrotation Xrotation Yrotation
    JOINT LeftKnee
    {
      OFFSET 0.7532 -40.9383 0
      CHANNELS 6 Xposition Yposition Zposition Zrotation Xrotation Yrotation
      JOINT LeftAnkle
      {
        OFFSET 0 -40.1986 0
        CHANNELS 6 Xposition Yposition Zposition Zrotation Xrotation Yrotation
        JOINT LeftToe
        {
          OFFSET 0 -4.4182 9.239
          CHANNELS 6 Xposition Yposition Zposition Zrotation Xrotation Yrotation
          End Site
          {
            OFFSET 0 0 6.1981
          }
        }
      }
    }
  }
}
MOTION
Frames:	4
Frame Time:	0.0333333
-9.73734 5.34974 8.39681 -90 -1.81636e-006 3.91823e-006 0 8.7983 -4.7612 2.3718 2.40524 -7.36033 0 8.0291 0.4195 5.0385 4.48435 -14.8312 -8.88178e-016 9.9351 -2.2114 5.03849 4.48435 -14.8312 8.88178e-016 22.3885 -0.4656 24.2835 -1.82536 0.820865 -0.0001 12.643 3.4389 8.57227 3.4325 0.04078 2.2603 21.606 7.4023 -4.91105 -11.9596 12.1571 13.5163 -1.1332 -5.0146 20.6135 -35.0222 3.88068 -0.0995 -28.05 -0.2431 -16.2304 2.95127 1.32005 0.0679 -23.3996 -0.1402 0.0056075 -0.0022617 0.737914 0.7932 -9.069 2.5189 1.59028e-015 0 -3.18055e-015 -0.8272 -3.3923 0.5977 -0 0 3.18055e-015 -0.5649 -2.3158 0.4082 -1.59028e-015 0 -0 0.9159 -9.2044 0.2193 1.59028e-015 0 -3.18055e-015 0.0117 -4.1944 -0.0248 -0.0128135 0.00231784 9.63246e-005 0.0071 -2.3249 -0.0142 1.59028e-015 0 -6.36111e-015 0.6113 -8.7231 -2.0637 1.59028e-015 0 -3.18055e-015 -0.1927 -3.8059 -0.2383 -0.0160154 0.00298473 0.000856386 -0.1091 -2.1688 -0.1362 -5.29669e-031 -3.18055e-015 -9.54166e-015 -0.6151 -8.0947 -3.5641 1.59028e-015 0 -3.18055e-015 -0.4882 -2.341 -0.6462 -0.0126064 0.00311564 0.00282172 -0.3575 -1.7167 -0.4742 -4.77083e-015 9.54166e-015 3.18055e-015 -1.42 -1.8761 1.4223 1.59028e-015 0 -3.18055e-015 -1.1471 -3.4929 2.6334 -0 0 3.18055e-015 -0.823 -2.3 1.6571 -1.59028e-015 0 -0 -2.2603 21.606 7.4023 -94.0224 -71.1926 -137.613 -13.5187 -1.1334 -5.0155 -98.0433 24.901 -22.3172 0.0994 -28.0499 -0.2431 31.5119 5.42688 28.0415 -0.0679 -23.3996 -0.1402 -28.9732 15.1415 55.8426 -0.7932 -9.0691 2.5189 2.49735e-007 -3.62041e-006 -1.6844e-006 0.8272 -3.3923 0.5977 6.66181e-006 -3.43161e-006 5.83763e-006 0.565 -2.3158 0.4082 3.18055e-015 -1.50579e-014 -2.28602e-015 -0.916 -9.2044 0.2193 2.49735e-007 -3.62041e-006 -1.6844e-006 -0.0117 -4.1944 -0.0248 0.0129782 0.00232696 -8.22528e-005 -0.0071 -2.3249 -0.0142 -3.18055e-015 -4.69629e-015 -4.96962e-017 -0.6113 -8.7231 -2.0637 2.49735e-007 -3.62041e-006 -1.6844e-006 0.1927 -3.8059 -0.2383 0.0163283 0.00303194 -0.000866584 0.1091 -2.1688 -0.1362 -9.54166e-015 -1.34083e-007 -2.48481e-016 0.6151 -8.0947 -3.564 2.49735e-007 -3.62041e-006 -1.6844e-006 0.4882 -2.341 -0.6462 0.0146229 0.00367729 -0.00326098 0.3574 -1.7166 -0.4742 -1.37935e-032 9.93923e-016 7.95139e-016 1.4199 -1.8761 1.4221 2.49735e-007 -3.62041e-006 -1.6844e-006 1.1472 -3.4929 2.6336 6.66181e-006 -3.43161e-006 5.83763e-006 0.8229 -2.3 1.6571 3.18055e-015 -1.50579e-014 -2.28602e-015 -9.412 3.9771 -0.7758 -5.95048 -13.9492 1.45232 -0.7531 -40.938 2.66454e-015 59.0354 24.2065 -87.0277 -8.88179e-016 -40.1986 0 12.6098 31.299 16.0463 0 -4.4182 9.239 1.65093e-006 1.24183e-006 -3.09505e-008 9.4119 3.9773 -0.7758 5.12612 14.2624 8.9818 0.7532 -40.9383 1.77636e-015 5.10659 72.396 -7.4466 0 -40.1986 0 2.5417 1.50715 3.79812 4.44089e-016 -4.4182 9.239 -6.14248e-006 1.04719e-005 -5.01245e-006 
-9.73957 5.34954 8.01528 -90 -6.18144e-007 1.32664e-006 0 8.7983 -4.7612 2.33988 2.69992 -7.2182 -8.88178e-016 8.0291 0.4195 5.0086 5.08165 -14.5624 -4.44089e-016 9.9351 -2.2114 5.0086 5.08166 -14.5625 8.88179e-016 22.3885 -0.4656 24.168 -1.82704 0.817177 -0.0001 12.643 3.4389 8.50807 3.51972 0.033986 2.2603 21.606 7.4023 -3.89545 -12.97 12.1304 13.5163 -1.1332 -5.0146 20.1164 -35.4235 3.59836 -0.0995 -28.05 -0.2431 -16.5906 3.01159 1.26056 0.0679 -23.3996 -0.1402 0.00563334 -0.00227372 0.746633 0.7932 -9.069 2.5189 1.59028e-015 6.36111e-015 3.18055e-015 -0.8272 -3.3923 0.5977 1.56355e-006 -1.67353e-006 2.55449e-006 -0.5649 -2.3158 0.4082 3.18055e-015 3.18055e-015 6.36111e-015 0.9159 -9.2044 0.2193 1.59028e-015 6.36111e-015 3.18055e-015 0.0117 -4.1944 -0.0248 -0.0128195 0.00232716 8.1565e-005 0.0071 -2.3249 -0.0142 -7.54805e-006 -1.41276e-006 6.63053e-007 0.6113 -8.7231 -2.0637 1.59028e-015 6.36111e-015 3.18055e-015 -0.1927 -3.8059 -0.2383 -0.0160785 0.00299726 0.000859743 -0.1091 -2.1688 -0.1362 3.53113e-031 -6.36111e-015 3.18055e-015 -0.6151 -8.0947 -3.5641 1.59028e-015 6.36111e-015 3.18055e-015 -0.4882 -2.341 -0.6462 -0.0126149 0.00313157 0.00283694 -0.3575 -1.7167 -0.4742 -1.59028e-015 -6.36111e-015 -6.36111e-015 -1.42 -1.8761 1.4223 1.59028e-015 6.36111e-015 3.18055e-015 -1.1471 -3.4929 2.6334 1.56355e-006 -1.67353e-006 2.55449e-006 -0.823 -2.3 1.6571 3.18055e-015 3.18055e-015 6.36111e-015 -2.2603 21.606 7.4023 -95.6536 -70.4202 -140.073 -13.5187 -1.1334 -5.0155 -98.0433 24.901 -22.3172 0.0994 -28.0499 -0.2431 31.2643 5.38825 27.5553 -0.0679 -23.3996 -0.1402 -28.4056 15.9509 56.3528 -0.7932 -9.0691 2.5189 -6.36111e-015 1.44119e-015 -9.44227e-016 0.8272 -3.3923 0.5977 -6.36111e-015 9.93923e-016 1.98785e-016 0.565 -2.3158 0.4082 -6.36111e-015 -5.2181e-016 4.96962e-017 -0.916 -9.2044 0.2193 -6.36111e-015 1.44119e-015 -9.44227e-016 -0.0117 -4.1944 -0.0248 0.0129573 0.00231082 -8.24079e-005 -0.0071 -2.3249 -0.0142 1.24917e-031 -1.02871e-014 6.95746e-016 -0.6113 -8.7231 -2.0637 -6.36111e-015 1.44119e-015 -9.44227e-016 0.1927 -3.8059 -0.2383 0.0163349 0.00302158 -0.000872748 0.1091 -2.1688 -0.1362 1.25003e-032 -3.60297e-015 1.98785e-016 0.6151 -8.0947 -3.564 -6.36111e-015 1.44119e-015 -9.44227e-016 0.4882 -2.341 -0.6462 0.0146109 0.00368503 -0.00326858 0.3574 -1.7166 -0.4742 -2.24144e-032 -9.93923e-016 -1.2921e-015 1.4199 -1.8761 1.4221 -6.36111e-015 1.44119e-015 -9.44227e-016 1.1472 -3.4929 2.6336 -6.36111e-015 9.93923e-016 1.98785e-016 0.8229 -2.3 1.6571 -6.36111e-015 -5.2181e-016 4.96962e-017 -9.412 3.9771 -0.7758 -6.01029 -14.2406 1.30755 -0.7531 -40.938 -1.77636e-015 59.0246 24.2036 -87.0251 0 -40.1986 -7.10543e-015 12.4406 31.3664 15.8791 -3.55271e-015 -4.4182 9.239 -4.13399e-006 6.07505e-007 -1.545e-005 9.4119 3.9773 -0.7758 5.13622 13.6903 9.04553 0.7532 -40.9383 -1.77636e-015 5.61475 73.125 -7.91607 0 -40.1986 0 2.53972 1.48381 3.81148 4.44089e-016 -4.4182 9.239 -2.8888e-006 -6.68603e-006 -9.70808e-007 
-9.74177 5.34934 7.63378 -90 1.14007e-007 4.56036e-007 0 8.7983 -4.7612 2.30661 2.99439 -7.0759 -8.88179e-016 8.0291 0.4195 4.97468 5.67871 -14.2934 0 9.9351 -2.2114 4.97471 5.67873 -14.2934 -4.44089e-016 22.3885 -0.4656 24.0526 -1.82868 0.813482 -0.0001 12.643 3.4389 8.44394 3.60696 0.0272815 2.2603 21.606 7.4023 -2.87679 -13.98 12.122 13.5163 -1.1332 -5.0146 19.6073 -35.8237 3.30627 -0.0995 -28.05 -0.2431 -16.9446 3.07249 1.19972 0.0679 -23.3996 -0.1402 0.0056511 -0.00228563 0.755412 0.7932 -9.069 2.5189 -1.59028e-015 0 6.36111e-015 -0.8272 -3.3923 0.5977 -3.18055e-015 3.18055e-015 -0 -0.5649 -2.3158 0.4082 -1.59028e-015 9.54166e-015 6.36111e-015 0.9159 -9.2044 0.2193 -1.59028e-015 0 6.36111e-015 0.0117 -4.1944 -0.0248 -0.01279 0.00232538 8.01436e-005 0.0071 -2.3249 -0.0142 1.27222e-014 0 3.18055e-015 0.6113 -8.7231 -2.0637 -1.59028e-015 0 6.36111e-015 -0.1927 -3.8059 -0.2383 -0.0160068 0.00299336 0.000851587 -0.1091 -2.1688 -0.1362 1.11319e-014 3.18055e-015 -9.54166e-015 -0.6151 -8.0947 -3.5641 -1.59028e-015 0 6.36111e-015 -0.4882 -2.341 -0.6462 -0.0126128 0.00313561 0.00282292 -0.3575 -1.7167 -0.4742 1.76556e-031 -3.18055e-015 3.18055e-015 -1.42 -1.8761 1.4223 -1.59028e-015 0 6.36111e-015 -1.1471 -3.4929 2.6334 -3.18055e-015 3.18055e-015 -0 -0.823 -2.3 1.6571 -1.59028e-015 9.54166e-015 6.36111e-015 -2.2603 21.606 7.4023 -97.1271 -69.6267 -142.376 -13.5187 -1.1334 -5.0155 -98.0433 24.901 -22.3172 0.0994 -28.0499 -0.2431 31.01 5.34855 27.0756 -0.0679 -23.3996 -0.1402 -27.8437 16.7648 56.8567 -0.7932 -9.0691 2.5189 -3.18055e-015 -3.516e-015 -2.23633e-015 0.8272 -3.3923 0.5977 7.12897e-006 -1.71948e-005 1.12839e-005 0.565 -2.3158 0.4082 -6.36111e-015 -3.60297e-016 9.44227e-016 -0.916 -9.2044 0.2193 -3.18055e-015 -3.516e-015 -2.23633e-015 -0.0117 -4.1944 -0.0248 0.0129516 0.00229659 -6.67623e-005 -0.0071 -2.3249 -0.0142 3.18055e-015 -2.3233e-015 -1.98785e-016 -0.6113 -8.7231 -2.0637 -3.18055e-015 -3.516e-015 -2.23633e-015 0.1927 -3.8059 -0.2383 0.016311 0.0030171 -0.000872586 0.1091 -2.1688 -0.1362 -3.18055e-015 -1.6524e-015 -4.96962e-016 0.6151 -8.0947 -3.564 -3.18055e-015 -3.516e-015 -2.23633e-015 0.4882 -2.341 -0.6462 0.0145924 0.00366521 -0.00326278 0.3574 -1.7166 -0.4742 -3.18055e-015 -1.17283e-014 2.48481e-016 1.4199 -1.8761 1.4221 -3.18055e-015 -3.516e-015 -2.23633e-015 1.1472 -3.4929 2.6336 7.12897e-006 -1.71948e-005 1.12839e-005 0.8229 -2.3 1.6571 -6.36111e-015 -3.60297e-016 9.44227e-016 -9.412 3.9771 -0.7758 -6.07087 -14.5337 1.16231 -0.7531 -40.938 8.88179e-016 59.0146 24.2018 -87.0244 0 -40.1986 0 12.2714 31.4341 15.7122 0 -4.4182 9.239 -7.5716e-007 2.71643e-006 1.49247e-006 9.4119 3.9773 -0.7758 5.14671 13.1188 9.1095 0.7532 -40.9383 0 6.16687 73.8521 -8.42946 8.88178e-016 -40.1986 0 2.53774 1.46029 3.82488 4.44089e-016 -4.4182 9.239 -1.96013e-006 -1.17207e-007 5.65136e-007 
-9.74395 5.34915 7.2523 -90 -1.17879e-006 1.5926e-006 8.88179e-016 8.7983 -4.7612 2.27199 3.28861 -6.93343 8.88179e-016 8.0291 0.4195 4.93678 6.27546 -14.0239 0 9.9351 -2.2114 4.93681 6.27548 -14.024 1.77636e-015 22.3885 -0.4656 23.9371 -1.83031 0.809806 -0.0001 12.643 3.4389 8.37972 3.69417 0.0206734 2.2603 21.606 7.4023 -1.8547 -14.989 12.1321 13.5163 -1.1332 -5.0146 19.0956 -36.2215 3.00979 -0.0995 -28.05 -0.2431 -17.3004 3.13299 1.13732 0.0679 -23.3996 -0.1402 0.00567715 -0.00232745 0.764288 0.7932 -9.069 2.5189 -1.59028e-015 0 -6.36111e-015 -0.8272 -3.3923 0.5977 -1.76556e-031 -3.18055e-015 -3.18055e-015 -0.5649 -2.3158 0.4082 -1.59028e-015 3.18055e-015 -0 0.9159 -9.2044 0.2193 -1.59028e-015 0 -6.36111e-015 0.0117 -4.1944 -0.0248 -0.012816 0.00232981 8.34832e-005 0.0071 -2.3249 -0.0142 -1.59028e-015 -3.18055e-015 -0 0.6113 -8.7231 -2.0637 -1.59028e-015 0 -6.36111e-015 -0.1927 -3.8059 -0.2383 -0.016014 0.0029954 0.000851355 -0.1091 -2.1688 -0.1362 4.77083e-015 3.18055e-015 -0 -0.6151 -8.0947 -3.5641 -1.59028e-015 0 -6.36111e-015 -0.4882 -2.341 -0.6462 -0.0125529 0.00311981 0.00281427 -0.3575 -1.7167 -0.4742 3.18055e-015 6.36111e-015 -0 -1.42 -1.8761 1.4223 -1.59028e-015 0 -6.36111e-015 -1.1471 -3.4929 2.6334 -1.76556e-031 -3.18055e-015 -3.18055e-015 -0.823 -2.3 1.6571 -1.59028e-015 3.18055e-015 -0 -2.2603 21.606 7.4023 -98.4568 -68.8149 -144.538 -13.5187 -1.1334 -5.0155 -98.0432 24.901 -22.3172 0.0994 -28.0499 -0.2431 30.7492 5.30782 26.6026 -0.0679 -23.3996 -0.1402 -27.2875 17.5829 57.3542 -0.7932 -9.0691 2.5189 -4.45923e-006 2.72951e-005 -7.33415e-006 0.8272 -3.3923 0.5977 -3.18055e-015 6.11263e-015 4.96962e-016 0.565 -2.3158 0.4082 -1.73765e-032 2.67117e-015 3.72721e-016 -0.916 -9.2044 0.2193 -4.45923e-006 2.72951e-005 -7.33415e-006 -0.0117 -4.1944 -0.0248 0.0129611 0.00230285 -7.9121e-005 -0.0071 -2.3249 -0.0142 3.18055e-015 6.21202e-017 5.96354e-016 -0.6113 -8.7231 -2.0637 -4.45923e-006 2.72951e-005 -7.33415e-006 0.1927 -3.8059 -0.2383 0.016358 0.00301543 -0.000867604 0.1091 -2.1688 -0.1362 3.18055e-015 -5.46658e-016 -5.46658e-016 0.6151 -8.0947 -3.564 -4.45923e-006 2.72951e-005 -7.33415e-006 0.4882 -2.341 -0.6462 0.0145807 0.00366211 -0.00325391 0.3574 -1.7166 -0.4742 3.18055e-015 -1.00635e-015 -8.19987e-016 1.4199 -1.8761 1.4221 -4.45923e-006 2.72951e-005 -7.33415e-006 1.1472 -3.4929 2.6336 -3.18055e-015 6.11263e-015 4.96962e-016 0.8229 -2.3 1.6571 -1.73765e-032 2.67117e-015 3.72721e-016 -9.412 3.9771 -0.7758 -6.13244 -14.825 1.01653 -0.7531 -40.938 0 59.004 24.1991 -87.022 1.77636e-015 -40.1986 0 12.1024 31.5021 15.5455 -7.10543e-015 -4.4182 9.239 1.65021e-006 3.93831e-006 -3.48398e-008 9.4119 3.9773 -0.7758 5.15756 12.5473 9.17362 0.7532 -40.9383 0 6.7689 74.5777 -8.99266 8.88178e-016 -40.1986 -7.10543e-015 2.53578 1.43668 3.83844 4.44089e-016 -4.4182 9.239 2.38542e-015 3.97569e-016 7.20594e-016 
